<?xml version="1.0" encoding="UTF-8"?>
<svg id="Layer_2" data-name="Layer 2" xmlns="http://www.w3.org/2000/svg" viewBox="0 0 322.3 64.23">
  <defs>
    <style>
      .cls-1 {
        fill: #005379;
      }
    </style>
  </defs>
  <g id="Layer_1-2" data-name="Layer 1">
    <g>
      <path class="cls-1" d="m51.8,1.42c-.58,2.76-3.33-.42-4.77,1.31-2,1.74-2.47,4.35-2.76,6.82l.15,38.57c.1,1.21.8,2.3,1.87,2.88,1.16,0,2.32-1.46,2.9.28-1.88,3.63-5.8,5.81-8.84,8.41-3.48-.87-5.51-4.64-6-8-.14-1.45.15-3.05-.29-4.2l-16.67,12c-4.23-2.29-8.07-5.26-11.36-8.77,3.48-3,8.56-5.07,11-9.56,2.9-5.8,1.6-13.49,1.6-20.16-1-6.09.29-13.48-5.8-17.26-1.68-.59-3.53-.43-5.08.44-1.74.99-2.73,2.94-2.49,4.93,2.46,8,12.32,13.19,10.15,22.77-.68,4.31-3.7,7.88-7.83,9.28-2.32.43-3.92-.87-5.37-2.47-.96-1.51-1.22-3.36-.72-5.07.47-.61,1.25-.89,2-.73.58,1.74,0,4.5,2.46,5.22,1.74.29,3.05-1,3.77-2.32,1.16-5.66-5.36-8.56-7.54-13C-.58,18.21-.73,12.52,1.78,7.8,4.11,3.23,8.83.37,13.96.41c5.15.16,9.88,2.88,12.61,7.25,4.35,6.81,4.35,17.55,1.16,24.94-2.03,5.22-6.23,9.4-10.7,13.2,1.57,2.2,4,3.62,6.06,5.2,3.92-1.6,7.4-4.93,11-7.55.44-11.74.29-23.92.15-35.81-.7-2.1-1.68-4.1-2.9-5.95,0-.43.58-.86.87-1,1.74,1,3,3,4.2,4.64,1.31-.72,2.76-2.46,4.21-3.33,3.06-1.73,8.14-3.19,11.18-.58Z"/>
      <path class="cls-1" d="m250.46,9c.87,1.05,1.15,2.47.73,3.77-.86,1.91-2.15,3.6-3.77,4.93-2.19-1.35-3.72-3.56-4.21-6.09-.19-1.6.7-3.14,2.18-3.77,1.77-.73,3.8-.26,5.07,1.16Z"/>
      <path class="cls-1" d="m271.34,8.67l.58.15c.25,1.84-.21,3.71-1.3,5.22-2.18,2.47-5.8,1.59-8.56,1-.58.44-1.45,1.46-.87,2.33,2.76,2.75,6.53,5.5,6.09,9.71-.14,12.62-.58,25.08-4.2,36.25-.15.58-.87.44-1.31.29-2.32-4.49-2.32-9.86-2.9-15.08l-.72-21.46c-.73-1.16-1.74.14-2.76-.43-.14-1.17,1-2.18,1.16-3.49,1.74-5.36.29-12.9,6.53-15.65,2.9-.14,5.5,3.05,8.26,1.16Z"/>
      <path class="cls-1" d="m164.76,8.67c1.3,1.6-.29,3.2-.58,4.79-1.16,1.73-3.14,2.73-5.22,2.61-1.45-.29-2.76-1.16-4.21-.72-2.32,2.89,2.76,4.2,3.63,6.37,3.19,4.21,1.74,10.59,1.74,15.67-1,9.13-.58,18.85-4.35,26.82-1.16.15-1.6-1-1.89-1.74-2.61-10.88-2.46-23.06-2.75-34.94-.58-1-2-.3-2.9-.58-.29-1,1.16-1.46,1.16-2.47,2.32-5.51-.29-14.21,7-16.82,2.86,0,5.64,3.05,8.37,1.01Z"/>
      <path class="cls-1" d="m253.36,26.51c.44.87-.72,1.3-1,1.88l-.15,19.73c.04,1.06.8,1.95,1.83,2.17,1.17.29,2.18-2,3-.15l-.29,1.31-7.39,8c-3.5-1.53-5.85-4.89-6.09-8.7l-.29-22c-.87-1.74-3.92.86-2.76-2l6.82-7.11h.43l5.89,6.87Z"/>
      <path class="cls-1" d="m305.27,28l7.69-7.54c2.75,1.74,5.36,4.64,7.68,7.25l-2,1.88v20.85c.58.58,1.31,1,2,.43.29-.29.87-1,1.31-.43.72.43.14,1.3,0,1.88l-7.4,7.25c-2.17-1.3-4.78-3.33-5.07-6.09-.73-7.39-.15-15.37-.44-22.91-.43-1.6-2.17-1.45-3.19-.87l-1,1.89c.15,6.23-.57,12.75.59,18.55.58,1.31,3,.88,2,2.62l-7,7-6.82-7.1,2-2.47.15-20.44c-.2-.7-.75-1.25-1.45-1.45-.73-.29-1.45,1.16-1.89,0l.15-1.16,6.67-7c3.56,1.3,4.72,4.92,6.02,7.86Z"/>
      <path class="cls-1" d="m89.79,28.25c2-2.32,2.76-5.8,5.08-7.69l5.22,6.53c-1,3-3.19,5.66-5.08,8.27-1.74-1.45-3.33-3.48-5.07-4.65-.44,5.95-.29,12.33-.15,18.42.29.87,1.31,2.17,2.32,2.17,1.31.59,2.18-2,3-.14-1.69,3.48-5.61,5.84-8.36,8.84l-.87-.15-6.82-6c-.43-.86,1-1.3,1.16-2.17l-.14-21.17c-.04-.97-.59-1.85-1.45-2.32-.73-.29-1.45,1-2-.14,1.59-2.9,4.64-5.23,7.1-7.55,3.3,1.22,4.76,4.85,6.06,7.75Z"/>
      <path class="cls-1" d="m65.29,3c-.73,2.46-2.76-.14-4.35.29-1.42.22-2.58,1.24-3,2.61-.63,1.35-.6,2.91.09,4.23,5.22,5.5,13.77,8.41,16.38,15.94,1.46,6.53,1.46,13.93,1.03,20.93-1,3.33-4.64,5.21-7.11,7.53l-7.1,5.95-10.15-8.16,1.59-2.9c.15-7-.43-14.06.29-20.73,2.47-1.46,5.51-2,7.25-4.64-5.36-4.64-10.87-10.3-8.26-17.69,1.41-3.08,4.21-5.3,7.54-5.95,2.17.29,4.64.87,5.8,2.59Zm-3.48,22.93v22.91l2.46,2.32c.58.43,1.74,1.74,2.32.29v-17.54c-.14-3.34-1.45-6.68-4.78-7.98Z"/>
      <path class="cls-1" d="m211.04,28.25c.58,1.16-1,1.6-1,2.61v19.43c.72,3.05,4.64-2.17,3.77,2l-8.27,7.39c-2.9-1.16-4.49-4.2-5.22-7-2.61,2-5.07,4.78-7.68,7-2.76-.87-4.35-3.77-5.37-6.23-1.16-6.52-.43-13.77-.58-20.59l14.79-12.76,1.31.43,8.25,7.72Zm-15.53,1.45c0,6.24-.29,12.91.29,19.14.3,1.1,1.2,1.94,2.32,2.16,1.3-.44,1.74-1.89,2.17-2.9l.15-15.81c-.87-1.29-3.48-6.5-4.93-2.59Z"/>
      <path class="cls-1" d="m114.59,20.42c2.9,3.92,4.93,8.27,7.39,12.47l-.43,1.16-12.18,10.87c-.73,1.6.14,3,.72,4.21,1.15,1.49,2.8,2.51,4.64,2.87,1.6.29,2.9-2.75,3.92-.58-1.74,3.77-5.66,5.36-8.27,8.41-3.62-1.31-8-3-9.42-7.1-2-6.1-.87-13.49-1-20.16,4.35-4.35,9.43-8.12,14.21-12.18l.42.03Zm-.56,16.67l-4.79-8.7-.14,13.49,4.93-4.79Z"/>
      <path class="cls-1" d="m185.64,32.75l-.15,1-12.76,11.76c.11,2.59,1.61,4.91,3.92,6.08,1.2.61,2.62.56,3.77-.14.58-.29,1-1,1.59-.58.3.48.45,1.03.44,1.59l-8.27,7.54c-3.77-1.46-9-3.48-9.71-8.27-1.74-5.65-.58-12.47-.87-18.7l.87-1.45,13.34-11.17.72.14,7.11,12.2Zm-12.91-4.21v13.05c2.04-1.09,3.79-2.67,5.08-4.59-1.78-2.81-3.05-6-5.08-8.46Z"/>
      <path class="cls-1" d="m293.24,33.18l-.29.73-12.18,11.3c-.58,1.45.29,2.76.72,4.07,1.02,1.33,2.45,2.28,4.06,2.72,1.89.87,3.48-2.75,4.64-.44l-.29,1.17-8,7.25c-3.19-1.46-6.82-2.76-8.85-5.95-3.33-6.09-1.16-14.35-1.74-21.46,4.49-4.35,9.43-8.12,14.07-12l.87.15,6.99,12.46Zm-12.62-4.64v12.9c1.89-.57,3.63-2.75,4.64-4.35l-4.64-8.55Z"/>
      <path class="cls-1" d="m221.17,13.31c-.87,1.89-4.2,2.61-2.75,5.37,2.32,2.46,6.09,4.49,6.52,8,2.47-1.75,4.5-4.5,7-6.38,9.72,5.07,5.37,17.25,6.38,26.68-3.91,4.49-8.7,8.84-13.05,13l-1.23-.41c-2.9-2.46-6.24-4.78-8.84-7.54l.72-1.59-.14-19.73c-1.31-3.62-4.06-7.1-2.61-11.45.87-2.75,2.9-6.23,6.09-6.81.75-.1,1.49.24,1.91.86Zm4.06,17.11l-.19,17.84c.73,1.6,2.47,2.46,3.92,3.19v-19.29c.48-2.16-2.71-5.16-3.73-1.74Z"/>
      <path class="cls-1" d="m145.62,11c2.46,2.32,3,6.1,2.17,9.43-.87,2.9-3.62,5.37-6.09,7.39,1.33,2.31,3.77,4.18,5.33,6.37l-.15,11.75c-3.62,4.78-7.68,9.43-11.74,14.21-4.93-2.46-8.85-7-13.34-10.44,1.45-2,3.48-3.91,4.93-6.09-5.22-2.9-3.19-9.28-3.63-14.35,3.69-4.05,7.68-7.82,11.93-11.27,1.74.58,3.63,1.88,5.66,1.3,1.43-.56,2.53-1.73,3-3.19.73-2.32-1.16-4.35-3-5.36-3.34-1.6-6.09,1.16-9.14,1.16-.43-.3-.87-.88-.43-1.46,3.77-3.37,11.02-3.81,14.5.55Zm-13.78,15.22l-.14,11.78c2.9-2.9,7.1-5.8,7.54-9.71-2.54-.4-5.02-1.09-7.4-2.07Zm5.51,10.3c-2.32,2.89-5.51,5.36-7.25,8.4,2.32,2,4.5,4.64,7.4,5.52.43-4.5.14-9.28.29-13.92h-.44Z"/>
    </g>
  </g>
</svg>