<?xml version="1.0" encoding="utf-8"?>
<!-- Generator: Adobe Illustrator 23.0.5, SVG Export Plug-In . SVG Version: 6.00 Build 0)  -->
<svg version="1.1" id="Layer_1" xmlns="http://www.w3.org/2000/svg" xmlns:xlink="http://www.w3.org/1999/xlink" x="0px" y="0px"
	 viewBox="0 0 322.3 64.2" style="enable-background:new 0 0 322.3 64.2;" xml:space="preserve">
<style type="text/css">
	.st0{fill:#FFFFFF;}
</style>
<g id="Layer_1-2">
	<g>
		<path class="st0" d="M51.8,1.4C51.2,4.2,48.5,1,47,2.7c-2,1.7-2.5,4.3-2.8,6.8l0.2,38.6c0.1,1.2,0.8,2.3,1.9,2.9
			c1.2,0,2.3-1.5,2.9,0.3c-1.9,3.6-5.8,5.8-8.8,8.4c-3.5-0.9-5.5-4.6-6-8c-0.1-1.5,0.2-3-0.3-4.2l-16.7,12
			c-4.2-2.3-8.1-5.3-11.4-8.8c3.5-3,8.6-5.1,11-9.6c2.9-5.8,1.6-13.5,1.6-20.2c-1-6.1,0.3-13.5-5.8-17.3c-1.7-0.6-3.5-0.4-5.1,0.4
			C6,5.2,5,7.1,5.3,9.1c2.5,8,12.3,13.2,10.1,22.8c-0.7,4.3-3.7,7.9-7.8,9.3c-2.3,0.4-3.9-0.9-5.4-2.5c-1-1.5-1.2-3.4-0.7-5.1
			c0.5-0.6,1.3-0.9,2-0.7c0.6,1.7,0,4.5,2.5,5.2c1.7,0.3,3.1-1,3.8-2.3c1.2-5.7-5.4-8.6-7.5-13c-2.8-4.6-2.9-10.3-0.4-15
			C4.1,3.2,8.8,0.4,14,0.4c5.2,0.2,9.9,2.9,12.6,7.3c4.4,6.8,4.4,17.5,1.2,24.9c-2,5.2-6.2,9.4-10.7,13.2c1.6,2.2,4,3.6,6.1,5.2
			c3.9-1.6,7.4-4.9,11-7.5c0.4-11.7,0.3-23.9,0.2-35.8c-0.7-2.1-1.7-4.1-2.9-5.9c0-0.4,0.6-0.9,0.9-1c1.7,1,3,3,4.2,4.6
			c1.3-0.7,2.8-2.5,4.2-3.3C43.7,0.3,48.8-1.2,51.8,1.4z"/>
		<path class="st0" d="M250.5,9c0.9,1.1,1.1,2.5,0.7,3.8c-0.9,1.9-2.1,3.6-3.8,4.9c-2.2-1.4-3.7-3.6-4.2-6.1
			c-0.2-1.6,0.7-3.1,2.2-3.8C247.2,7.1,249.2,7.6,250.5,9L250.5,9z"/>
		<path class="st0" d="M271.3,8.7l0.6,0.1c0.3,1.8-0.2,3.7-1.3,5.2c-2.2,2.5-5.8,1.6-8.6,1c-0.6,0.4-1.5,1.5-0.9,2.3
			c2.8,2.8,6.5,5.5,6.1,9.7c-0.1,12.6-0.6,25.1-4.2,36.3c-0.1,0.6-0.9,0.4-1.3,0.3c-2.3-4.5-2.3-9.9-2.9-15.1l-0.7-21.5
			c-0.7-1.2-1.7,0.1-2.8-0.4c-0.1-1.2,1-2.2,1.2-3.5c1.7-5.4,0.3-12.9,6.5-15.6C266,7.4,268.6,10.6,271.3,8.7z"/>
		<path class="st0" d="M164.8,8.7c1.3,1.6-0.3,3.2-0.6,4.8c-1.2,1.7-3.1,2.7-5.2,2.6c-1.4-0.3-2.8-1.2-4.2-0.7
			c-2.3,2.9,2.8,4.2,3.6,6.4c3.2,4.2,1.7,10.6,1.7,15.7c-1,9.1-0.6,18.8-4.4,26.8c-1.2,0.2-1.6-1-1.9-1.7
			c-2.6-10.9-2.5-23.1-2.8-34.9c-0.6-1-2-0.3-2.9-0.6c-0.3-1,1.2-1.5,1.2-2.5c2.3-5.5-0.3-14.2,7-16.8C159.3,7.7,162,10.7,164.8,8.7
			z"/>
		<path class="st0" d="M253.4,26.5c0.4,0.9-0.7,1.3-1,1.9l-0.1,19.7c0,1.1,0.8,2,1.8,2.2c1.2,0.3,2.2-2,3-0.2l-0.3,1.3l-7.4,8
			c-3.5-1.5-5.9-4.9-6.1-8.7l-0.3-22c-0.9-1.7-3.9,0.9-2.8-2l6.8-7.1h0.4L253.4,26.5L253.4,26.5z"/>
		<path class="st0" d="M305.3,28l7.7-7.5c2.8,1.7,5.4,4.6,7.7,7.3l-2,1.9v20.9c0.6,0.6,1.3,1,2,0.4c0.3-0.3,0.9-1,1.3-0.4
			c0.7,0.4,0.1,1.3,0,1.9l-7.4,7.3c-2.2-1.3-4.8-3.3-5.1-6.1c-0.7-7.4-0.1-15.4-0.4-22.9c-0.4-1.6-2.2-1.5-3.2-0.9l-1,1.9
			c0.1,6.2-0.6,12.7,0.6,18.6c0.6,1.3,3,0.9,2,2.6l-7,7l-6.8-7.1l2-2.5l0.1-20.4c-0.2-0.7-0.8-1.3-1.5-1.5c-0.7-0.3-1.5,1.2-1.9,0
			l0.1-1.2l6.7-7C302.8,21.4,304,25.1,305.3,28L305.3,28z"/>
		<path class="st0" d="M89.8,28.3c2-2.3,2.8-5.8,5.1-7.7l5.2,6.5c-1,3-3.2,5.7-5.1,8.3c-1.7-1.5-3.3-3.5-5.1-4.6
			c-0.4,5.9-0.3,12.3-0.2,18.4c0.3,0.9,1.3,2.2,2.3,2.2c1.3,0.6,2.2-2,3-0.1c-1.7,3.5-5.6,5.8-8.4,8.8l-0.9-0.2l-6.8-6
			c-0.4-0.9,1-1.3,1.2-2.2l-0.1-21.2c0-1-0.6-1.9-1.4-2.3c-0.7-0.3-1.4,1-2-0.1c1.6-2.9,4.6-5.2,7.1-7.6
			C87,21.7,88.5,25.4,89.8,28.3z"/>
		<path class="st0" d="M65.3,3c-0.7,2.5-2.8-0.1-4.3,0.3c-1.4,0.2-2.6,1.2-3,2.6c-0.6,1.3-0.6,2.9,0.1,4.2
			c5.2,5.5,13.8,8.4,16.4,15.9c1.5,6.5,1.5,13.9,1,20.9c-1,3.3-4.6,5.2-7.1,7.5l-7.1,6l-10.2-8.2l1.6-2.9c0.2-7-0.4-14.1,0.3-20.7
			c2.5-1.5,5.5-2,7.3-4.6C54.9,19.4,49.3,13.7,52,6.4c1.4-3.1,4.2-5.3,7.5-5.9C61.7,0.7,64.1,1.3,65.3,3z M61.8,25.9v22.9l2.5,2.3
			c0.6,0.4,1.7,1.7,2.3,0.3V33.9C66.5,30.6,65.1,27.2,61.8,25.9z"/>
		<path class="st0" d="M211,28.3c0.6,1.2-1,1.6-1,2.6v19.4c0.7,3,4.6-2.2,3.8,2l-8.3,7.4c-2.9-1.2-4.5-4.2-5.2-7
			c-2.6,2-5.1,4.8-7.7,7c-2.8-0.9-4.4-3.8-5.4-6.2c-1.2-6.5-0.4-13.8-0.6-20.6l14.8-12.8l1.3,0.4L211,28.3z M195.5,29.7
			c0,6.2-0.3,12.9,0.3,19.1c0.3,1.1,1.2,1.9,2.3,2.2c1.3-0.4,1.7-1.9,2.2-2.9l0.1-15.8C199.6,31,197,25.8,195.5,29.7z"/>
		<path class="st0" d="M114.6,20.4c2.9,3.9,4.9,8.3,7.4,12.5l-0.4,1.2l-12.2,10.9c-0.7,1.6,0.1,3,0.7,4.2c1.2,1.5,2.8,2.5,4.6,2.9
			c1.6,0.3,2.9-2.8,3.9-0.6c-1.7,3.8-5.7,5.4-8.3,8.4c-3.6-1.3-8-3-9.4-7.1c-2-6.1-0.9-13.5-1-20.2c4.3-4.4,9.4-8.1,14.2-12.2
			C114.2,20.4,114.6,20.4,114.6,20.4z M114,37.1l-4.8-8.7l-0.1,13.5C109.1,41.9,114,37.1,114,37.1z"/>
		<path class="st0" d="M185.6,32.8l-0.1,1l-12.8,11.8c0.1,2.6,1.6,4.9,3.9,6.1c1.2,0.6,2.6,0.6,3.8-0.1c0.6-0.3,1-1,1.6-0.6
			c0.3,0.5,0.4,1,0.4,1.6l-8.3,7.5c-3.8-1.5-9-3.5-9.7-8.3c-1.7-5.7-0.6-12.5-0.9-18.7l0.9-1.5l13.3-11.2l0.7,0.1L185.6,32.8z
			 M172.7,28.5v13c2-1.1,3.8-2.7,5.1-4.6C176,34.2,174.8,31,172.7,28.5z"/>
		<path class="st0" d="M293.2,33.2l-0.3,0.7l-12.2,11.3c-0.6,1.5,0.3,2.8,0.7,4.1c1,1.3,2.5,2.3,4.1,2.7c1.9,0.9,3.5-2.8,4.6-0.4
			l-0.3,1.2l-8,7.3c-3.2-1.5-6.8-2.8-8.9-6c-3.3-6.1-1.2-14.3-1.7-21.5c4.5-4.4,9.4-8.1,14.1-12l0.9,0.1L293.2,33.2z M280.6,28.5
			v12.9c1.9-0.6,3.6-2.8,4.6-4.3C285.3,37.1,280.6,28.5,280.6,28.5z"/>
		<path class="st0" d="M221.2,13.3c-0.9,1.9-4.2,2.6-2.8,5.4c2.3,2.5,6.1,4.5,6.5,8c2.5-1.8,4.5-4.5,7-6.4
			c9.7,5.1,5.4,17.3,6.4,26.7c-3.9,4.5-8.7,8.8-13.1,13l-1.2-0.4c-2.9-2.5-6.2-4.8-8.8-7.5l0.7-1.6l-0.1-19.7
			c-1.3-3.6-4.1-7.1-2.6-11.5c0.9-2.8,2.9-6.2,6.1-6.8C220,12.3,220.8,12.7,221.2,13.3L221.2,13.3z M225.2,30.4L225,48.3
			c0.7,1.6,2.5,2.5,3.9,3.2V32.2C229.4,30,226.2,27,225.2,30.4z"/>
		<path class="st0" d="M145.6,11c2.5,2.3,3,6.1,2.2,9.4c-0.9,2.9-3.6,5.4-6.1,7.4c1.3,2.3,3.8,4.2,5.3,6.4l-0.1,11.8
			c-3.6,4.8-7.7,9.4-11.7,14.2c-4.9-2.5-8.8-7-13.3-10.4c1.4-2,3.5-3.9,4.9-6.1c-5.2-2.9-3.2-9.3-3.6-14.4
			c3.7-4.1,7.7-7.8,11.9-11.3c1.7,0.6,3.6,1.9,5.7,1.3c1.4-0.6,2.5-1.7,3-3.2c0.7-2.3-1.2-4.4-3-5.4c-3.3-1.6-6.1,1.2-9.1,1.2
			c-0.4-0.3-0.9-0.9-0.4-1.5C134.9,7.1,142.1,6.6,145.6,11L145.6,11z M131.8,26.2L131.7,38c2.9-2.9,7.1-5.8,7.5-9.7
			C136.7,27.9,134.2,27.2,131.8,26.2z M137.3,36.5c-2.3,2.9-5.5,5.4-7.3,8.4c2.3,2,4.5,4.6,7.4,5.5c0.4-4.5,0.1-9.3,0.3-13.9
			L137.3,36.5L137.3,36.5z"/>
	</g>
</g>
</svg>
